<svg width="30" height="30" viewBox="0 0 30 30" fill="none" xmlns="http://www.w3.org/2000/svg">
<g clip-path="url(#clip0_531_170911)">
<path d="M22.3462 15.0586C22.7257 16.0781 23.2305 16.9033 23.7891 17.6055C24.3478 16.9033 24.9111 16.078 25.2906 15.0586H22.3462Z" fill="#003E47"/>
<path d="M27.3633 5.33203H16.4482L18.7241 23.5945C18.7644 24.3414 18.5602 25.0447 18.0727 25.5952L14.2185 30H27.3633C28.8172 30 30 28.8172 30 27.3633V8.02734C30 6.5734 28.8172 5.33203 27.3633 5.33203ZM27.3633 15.0586H27.1285C26.6284 16.6631 25.8354 17.9186 25.0112 18.9083C25.6568 19.4986 26.3472 19.9828 27.0337 20.5252C27.4122 20.8281 27.474 21.3809 27.1701 21.7603C26.8677 22.1391 26.3128 22.2005 25.935 21.8967C25.1892 21.308 24.4891 20.8153 23.789 20.1728C23.089 20.8153 22.4475 21.308 21.7016 21.8967C21.3239 22.2005 20.769 22.1391 20.4665 21.7603C20.1627 21.3809 20.2245 20.8281 20.603 20.5252C21.2894 19.9828 21.9212 19.4986 22.5669 18.9083C21.7427 17.9186 21.0082 16.6631 20.5081 15.0586H20.2734C19.7876 15.0586 19.3945 14.6655 19.3945 14.1797C19.3945 13.6939 19.7876 13.3008 20.2734 13.3008H22.9101V12.4219C22.9101 11.9361 23.3032 11.543 23.789 11.543C24.2748 11.543 24.6679 11.9361 24.6679 12.4219V13.3008H27.3633C27.8491 13.3008 28.2422 13.6939 28.2422 14.1797C28.2422 14.6655 27.8491 15.0586 27.3633 15.0586Z" fill="#003E47"/>
<path fill-rule="evenodd" clip-rule="evenodd" d="M11.6904 0C13.0173 0 14.1425 0.993047 14.3065 2.30971C14.3184 2.40486 16.9798 23.7715 16.9775 23.8674C16.9696 24.2005 16.8056 24.3827 16.5941 24.6178C16.5627 24.6526 16.5303 24.6887 16.4971 24.7266H2.63672C1.18277 24.7266 0 23.5438 0 22.0898V2.63672C0 1.18277 1.18277 0 2.63672 0H11.6904ZM4.67294 13.0715C4.64293 13.274 4.62793 13.4653 4.62793 13.6453C4.62793 14.0954 4.71419 14.4817 4.88672 14.8043C5.05925 15.1268 5.29178 15.3931 5.58433 15.6031C5.88437 15.8132 6.22942 15.967 6.61948 16.0645C7.01705 16.1695 7.43336 16.222 7.86842 16.222C8.42351 16.222 8.89983 16.1545 9.29739 16.0195C9.70246 15.8844 10.04 15.7007 10.31 15.4681C10.5876 15.2431 10.8089 14.9843 10.9739 14.6918C11.1389 14.4067 11.2552 14.1104 11.3227 13.8029C11.3977 13.4953 11.4352 13.1953 11.4352 12.9027C11.4352 12.5652 11.394 12.2351 11.3115 11.9126C11.2364 11.5825 11.1352 11.2637 11.0077 10.9562C10.8876 10.6411 10.7526 10.3411 10.6026 10.056L9.75871 10.4836C10.0513 11.0837 10.25 11.5863 10.3551 11.9913C10.4676 12.3964 10.5238 12.7415 10.5238 13.0265C10.5238 13.289 10.4788 13.5553 10.3888 13.8254C10.3063 14.0954 10.1638 14.3392 9.96124 14.5567C9.75871 14.7818 9.48492 14.9618 9.13987 15.0968C8.80232 15.2318 8.38225 15.2994 7.87968 15.2994C7.43711 15.2994 7.03955 15.2356 6.68699 15.1081C6.33444 14.9806 6.0569 14.7893 5.85437 14.5342C5.65184 14.2792 5.55057 13.9566 5.55057 13.5666C5.55057 13.4166 5.56182 13.259 5.58433 13.094C5.61433 12.929 5.65559 12.7527 5.70809 12.5652C5.7681 12.3777 5.83561 12.1789 5.91063 11.9688L5.1005 11.6538C4.99549 11.9163 4.90547 12.1676 4.83046 12.4077C4.76295 12.6402 4.71044 12.8615 4.67294 13.0715ZM7.62089 8.99839C7.7334 9.1034 7.86843 9.15591 8.02595 9.15591C8.17597 9.15591 8.30349 9.1034 8.40851 8.99839C8.52102 8.88587 8.57728 8.7546 8.57728 8.60458C8.57728 8.45456 8.52102 8.32329 8.40851 8.21077C8.30349 8.09825 8.17597 8.04199 8.02595 8.04199C7.86843 8.04199 7.7334 8.09825 7.62089 8.21077C7.51587 8.32329 7.46336 8.45456 7.46336 8.60458C7.46336 8.7546 7.51587 8.88587 7.62089 8.99839Z" fill="#003E47"/>
<path d="M10.2692 26.4844L10.42 27.6903C10.5205 28.4979 11.0571 29.3214 11.9398 29.7326C13.6055 27.899 12.5977 29.0083 14.8905 26.4844H10.2692Z" fill="#003E47"/>
</g>
<defs>
<clipPath id="clip0_531_170911">
<rect width="30" height="30" fill="white"/>
</clipPath>
</defs>
</svg>
