<svg width="30" height="30" viewBox="0 0 30 30" fill="none" xmlns="http://www.w3.org/2000/svg">
<g clip-path="url(#clip0_531_170868)">
<path d="M22.3462 15.0586C22.7257 16.0781 23.2305 16.9033 23.7891 17.6055C24.3478 16.9033 24.9111 16.078 25.2906 15.0586H22.3462Z" fill="#003E47"/>
<path d="M27.3633 5.33203H16.4482L18.7241 23.5945C18.7644 24.3414 18.5602 25.0447 18.0727 25.5952L14.2185 30H27.3633C28.8172 30 30 28.8172 30 27.3633V8.02734C30 6.5734 28.8172 5.33203 27.3633 5.33203ZM27.3633 15.0586H27.1285C26.6284 16.6631 25.8354 17.9186 25.0112 18.9083C25.6568 19.4986 26.3472 19.9828 27.0337 20.5252C27.4122 20.8281 27.474 21.3809 27.1701 21.7603C26.8677 22.1391 26.3128 22.2005 25.935 21.8967C25.1892 21.308 24.4891 20.8153 23.789 20.1728C23.089 20.8153 22.4475 21.308 21.7016 21.8967C21.3239 22.2005 20.769 22.1391 20.4665 21.7603C20.1627 21.3809 20.2245 20.8281 20.603 20.5252C21.2894 19.9828 21.9212 19.4986 22.5669 18.9083C21.7427 17.9186 21.0082 16.6631 20.5081 15.0586H20.2734C19.7876 15.0586 19.3945 14.6655 19.3945 14.1797C19.3945 13.6939 19.7876 13.3008 20.2734 13.3008H22.9101V12.4219C22.9101 11.9361 23.3032 11.543 23.789 11.543C24.2748 11.543 24.6679 11.9361 24.6679 12.4219V13.3008H27.3633C27.8491 13.3008 28.2422 13.6939 28.2422 14.1797C28.2422 14.6655 27.8491 15.0586 27.3633 15.0586Z" fill="#003E47"/>
<path fill-rule="evenodd" clip-rule="evenodd" d="M11.6904 0C13.0173 0 14.1425 0.993047 14.3065 2.30971C14.3184 2.40486 16.9798 23.7715 16.9775 23.8674C16.9696 24.2005 16.8056 24.3827 16.5941 24.6178C16.5627 24.6526 16.5303 24.6887 16.4971 24.7266H2.63672C1.18277 24.7266 0 23.5438 0 22.0898V2.63672C0 1.18277 1.18277 0 2.63672 0H11.6904ZM13 8.91318V8H2V8.91318H7.65296V9.44057C6.79421 9.71033 5.97841 10.0147 5.20556 10.3537C4.34543 10.731 3.48529 11.1597 2.62515 11.6399L3.14389 12.8746C3.79121 12.9518 4.4075 13.1447 4.99274 13.4534C5.58686 13.7535 6.11447 14.1265 6.57557 14.5723C7.03668 15.0182 7.39581 15.4941 7.65296 16H8.67715V10.3914C9.48706 10.5162 10.1033 10.7309 10.526 11.0354C10.9871 11.3526 11.2177 11.7385 11.2177 12.1929C11.2177 12.4159 11.1511 12.6088 11.0181 12.7717C10.894 12.926 10.6191 13.0032 10.1935 13.0032H9.92745C9.85651 12.9946 9.79444 12.9861 9.74123 12.9775L9.66143 13.9035C9.78557 13.9293 9.90971 13.9464 10.0339 13.955C10.1669 13.9636 10.3043 13.9678 10.4462 13.9678C10.8896 13.9678 11.2443 13.8864 11.5103 13.7235C11.7763 13.5606 11.9669 13.3548 12.0822 13.1061C12.1975 12.8489 12.2551 12.5788 12.2551 12.2958C12.2551 11.7728 12.0867 11.3098 11.7497 10.9068C11.4127 10.4952 10.9649 10.1608 10.4063 9.90354C9.88413 9.65509 9.30775 9.49279 8.67715 9.41663V8.91318H13ZM7.65296 10.4449C7.28733 10.553 6.91046 10.6855 6.52237 10.8424C6.04353 11.0397 5.57356 11.2454 5.11245 11.4598C4.66022 11.6742 4.24345 11.8842 3.86215 12.09C4.35873 12.1844 4.8686 12.3644 5.39178 12.6302C5.92382 12.896 6.40709 13.2219 6.8416 13.6077C7.20246 13.9148 7.48696 14.2446 7.69509 14.5971L7.66626 14.2765C7.6574 14.0793 7.65296 13.8435 7.65296 13.5691V10.4449Z" fill="#003E47"/>
<path d="M10.2692 26.4844L10.42 27.6903C10.5205 28.4979 11.0571 29.3214 11.9398 29.7326C13.6055 27.899 12.5977 29.0083 14.8905 26.4844H10.2692Z" fill="#003E47"/>
</g>
<defs>
<clipPath id="clip0_531_170868">
<rect width="30" height="30" fill="white"/>
</clipPath>
</defs>
</svg>
