<svg width="30" height="30" viewBox="0 0 30 30" fill="none" xmlns="http://www.w3.org/2000/svg">
<g clip-path="url(#clip0_531_170851)">
<path d="M8.12758 8.02734H7.75141L7.04846 11.543H8.83053L8.12758 8.02734Z" fill="#003E47"/>
<path d="M22.3462 15.0586C22.7257 16.0781 23.2305 16.9033 23.7891 17.6055C24.3478 16.9033 24.9111 16.078 25.2906 15.0586H22.3462Z" fill="#003E47"/>
<path d="M27.3633 5.33203H16.4482L18.7241 23.5945C18.7644 24.3414 18.5602 25.0447 18.0727 25.5952L14.2185 30H27.3633C28.8172 30 30 28.8172 30 27.3633V8.02734C30 6.5734 28.8172 5.33203 27.3633 5.33203ZM27.3633 15.0586H27.1285C26.6284 16.6631 25.8354 17.9186 25.0112 18.9083C25.6568 19.4986 26.3472 19.9828 27.0337 20.5252C27.4122 20.8281 27.474 21.3809 27.1701 21.7603C26.8677 22.1391 26.3128 22.2005 25.935 21.8967C25.1892 21.308 24.4891 20.8153 23.789 20.1728C23.089 20.8153 22.4475 21.308 21.7016 21.8967C21.3239 22.2005 20.769 22.1391 20.4665 21.7603C20.1627 21.3809 20.2245 20.8281 20.603 20.5252C21.2894 19.9828 21.9212 19.4986 22.5669 18.9083C21.7427 17.9186 21.0082 16.6631 20.5081 15.0586H20.2734C19.7876 15.0586 19.3945 14.6655 19.3945 14.1797C19.3945 13.6939 19.7876 13.3008 20.2734 13.3008H22.9101V12.4219C22.9101 11.9361 23.3032 11.543 23.789 11.543C24.2748 11.543 24.6679 11.9361 24.6679 12.4219V13.3008H27.3633C27.8491 13.3008 28.2422 13.6939 28.2422 14.1797C28.2422 14.6655 27.8491 15.0586 27.3633 15.0586Z" fill="#003E47"/>
<path d="M14.3065 2.30971C14.1425 0.993047 13.0173 0 11.6904 0H2.63672C1.18277 0 0 1.18277 0 2.63672V22.0898C0 23.5438 1.18277 24.7266 2.63672 24.7266C7.89082 24.7266 11.6705 24.7266 16.4971 24.7266C16.7535 24.4335 16.9685 24.25 16.9775 23.8674C16.9798 23.7715 14.3184 2.40486 14.3065 2.30971ZM10.778 16.7992C10.3119 16.8952 9.83982 16.5926 9.74373 16.11L9.18199 13.3008H6.69697L6.13523 16.11C6.04084 16.5855 5.58246 16.8979 5.101 16.7992C4.62551 16.704 4.31648 16.2414 4.41176 15.765L6.16951 6.97594C6.25189 6.56566 6.61242 6.26953 7.03125 6.26953H8.84766C9.26648 6.26953 9.62701 6.56566 9.70939 6.97594L11.4672 15.765C11.5625 16.2414 11.2535 16.704 10.778 16.7992Z" fill="#003E47"/>
<path d="M10.2692 26.4844L10.42 27.6903C10.5205 28.4979 11.0571 29.3214 11.9398 29.7326C13.6055 27.899 12.5977 29.0083 14.8905 26.4844H10.2692Z" fill="#003E47"/>
</g>
<defs>
<clipPath id="clip0_531_170851">
<rect width="30" height="30" fill="white"/>
</clipPath>
</defs>
</svg>
