<svg width="30" height="30" viewBox="0 0 30 30" fill="none" xmlns="http://www.w3.org/2000/svg">
<g clip-path="url(#clip0_531_170887)">
<path d="M22.3462 15.0586C22.7257 16.0781 23.2305 16.9033 23.7891 17.6055C24.3478 16.9033 24.9111 16.078 25.2906 15.0586H22.3462Z" fill="#003E47"/>
<path d="M27.3633 5.33203H16.4482L18.7241 23.5945C18.7644 24.3414 18.5602 25.0447 18.0727 25.5952L14.2185 30H27.3633C28.8172 30 30 28.8172 30 27.3633V8.02734C30 6.5734 28.8172 5.33203 27.3633 5.33203ZM27.3633 15.0586H27.1285C26.6284 16.6631 25.8354 17.9186 25.0112 18.9083C25.6568 19.4986 26.3472 19.9828 27.0337 20.5252C27.4122 20.8281 27.474 21.3809 27.1701 21.7603C26.8677 22.1391 26.3128 22.2005 25.935 21.8967C25.1892 21.308 24.4891 20.8153 23.789 20.1728C23.089 20.8153 22.4475 21.308 21.7016 21.8967C21.3239 22.2005 20.769 22.1391 20.4665 21.7603C20.1627 21.3809 20.2245 20.8281 20.603 20.5252C21.2894 19.9828 21.9212 19.4986 22.5669 18.9083C21.7427 17.9186 21.0082 16.6631 20.5081 15.0586H20.2734C19.7876 15.0586 19.3945 14.6655 19.3945 14.1797C19.3945 13.6939 19.7876 13.3008 20.2734 13.3008H22.9101V12.4219C22.9101 11.9361 23.3032 11.543 23.789 11.543C24.2748 11.543 24.6679 11.9361 24.6679 12.4219V13.3008H27.3633C27.8491 13.3008 28.2422 13.6939 28.2422 14.1797C28.2422 14.6655 27.8491 15.0586 27.3633 15.0586Z" fill="#003E47"/>
<path fill-rule="evenodd" clip-rule="evenodd" d="M11.6904 0C13.0173 0 14.1425 0.993047 14.3065 2.30971C14.3184 2.40486 16.9798 23.7715 16.9775 23.8674C16.9696 24.2005 16.8056 24.3827 16.5941 24.6178C16.5627 24.6526 16.5303 24.6887 16.4971 24.7266H2.63672C1.18277 24.7266 0 23.5438 0 22.0898V2.63672C0 1.18277 1.18277 0 2.63672 0H11.6904ZM9.13226 16.6182L9.94426 15.8622C8.83826 14.9242 7.73226 13.8882 6.96226 12.9782C8.40426 12.3622 9.37026 11.5502 9.37026 10.0382C9.37026 9.53419 9.31426 9.12819 9.17426 8.73619H10.6023V7.74219H4.66626V8.73619H8.01226C8.15226 9.01619 8.25026 9.47819 8.25026 9.89819C8.25026 10.6542 7.91426 11.2282 7.14426 11.5922C6.78026 11.1722 6.40226 10.9342 5.99626 10.9342C5.52026 10.9342 5.25426 11.2142 5.25426 11.6482C5.25426 12.0682 5.43626 12.5162 5.89826 13.1742C6.62626 14.2102 7.66226 15.2882 9.13226 16.6182Z" fill="#003E47"/>
<path d="M10.2692 26.4844L10.42 27.6903C10.5205 28.4979 11.0571 29.3214 11.9398 29.7326C13.6055 27.899 12.5977 29.0083 14.8905 26.4844H10.2692Z" fill="#003E47"/>
</g>
<defs>
<clipPath id="clip0_531_170887">
<rect width="30" height="30" fill="white"/>
</clipPath>
</defs>
</svg>
